<?xml version="1.0" standalone="no"?>
<!DOCTYPE svg PUBLIC "-//W3C//DTD SVG 20010904//EN"
 "http://www.w3.org/TR/2001/REC-SVG-20010904/DTD/svg10.dtd">
<svg version="1.0" xmlns="http://www.w3.org/2000/svg"
 width="600.000000pt" height="350.000000pt" viewBox="0 0 600.000000 350.000000"
 preserveAspectRatio="xMidYMid meet">

<g transform="translate(0.000000,350.000000) scale(0.100000,-0.100000)"
fill="#000000" stroke="none">
<path d="M0 1750 l0 -1750 3000 0 3000 0 0 1750 0 1750 -3000 0 -3000 0 0
-1750z m933 1379 c147 -49 247 -150 296 -296 67 -201 -31 -433 -223 -528 -141
-70 -271 -70 -411 -1 -90 45 -155 112 -202 212 -66 138 -55 295 29 427 58 91
171 172 275 196 70 16 170 12 236 -10z m1359 -8 c116 -73 155 -199 97 -312
-11 -23 -19 -42 -17 -43 2 -1 23 -14 48 -28 75 -43 132 -119 146 -195 17 -89
-50 -204 -151 -260 l-60 -33 -212 0 -213 0 0 450 0 450 158 0 c157 0 158 0
204 -29z m-718 -73 c110 -261 280 -661 305 -718 16 -36 27 -68 24 -72 -2 -5
-170 -8 -373 -8 -203 0 -371 3 -373 8 -3 4 21 68 52 142 256 602 315 740 320
740 4 0 24 -42 45 -92z m3125 -274 c45 -144 81 -267 81 -274 0 -7 -13 -10 -32
-8 -32 3 -34 6 -63 91 l-30 87 -82 0 c-76 0 -83 2 -83 20 0 18 7 20 76 20 74
0 76 1 70 23 -56 201 -58 216 -40 262 9 25 18 44 20 43 1 -2 39 -121 83 -264z
m321 250 c0 -3 -5 -14 -10 -25 -10 -17 -22 -19 -120 -19 l-110 0 0 -70 0 -70
85 0 c83 0 84 0 76 -22 -7 -21 -16 -23 -85 -26 -75 -3 -76 -3 -77 -30 0 -19
-8 -6 -25 42 -17 51 -24 91 -24 148 l0 78 145 0 c80 0 145 -3 145 -6z m-523
-656 c-2 -13 -4 -5 -4 17 -1 22 1 32 4 23 2 -10 2 -28 0 -40z m200 0 c-2 -13
-4 -5 -4 17 -1 22 1 32 4 23 2 -10 2 -28 0 -40z m-367 -8 c0 -5 -9 -1 -20 10
-11 11 -20 25 -20 30 0 6 9 1 20 -10 11 -11 20 -24 20 -30z m397 18 c1 -26 -1
-29 -7 -13 -6 17 -3 45 5 45 1 0 2 -15 2 -32z m-350 -20 c-3 -7 -5 -2 -5 12 0
14 2 19 5 13 2 -7 2 -19 0 -25z m30 0 c-3 -7 -5 -2 -5 12 0 14 2 19 5 13 2 -7
2 -19 0 -25z m60 0 c-3 -7 -5 -2 -5 12 0 14 2 19 5 13 2 -7 2 -19 0 -25z m60
0 c-3 -7 -5 -2 -5 12 0 14 2 19 5 13 2 -7 2 -19 0 -25z m80 0 c-3 -7 -5 -2 -5
12 0 14 2 19 5 13 2 -7 2 -19 0 -25z m200 0 c-3 -7 -5 -2 -5 12 0 14 2 19 5
13 2 -7 2 -19 0 -25z m30 0 c-3 -7 -5 -2 -5 12 0 14 2 19 5 13 2 -7 2 -19 0
-25z m30 0 c-3 -7 -5 -2 -5 12 0 14 2 19 5 13 2 -7 2 -19 0 -25z m90 0 c-3 -7
-5 -2 -5 12 0 14 2 19 5 13 2 -7 2 -19 0 -25z m30 0 c-3 -7 -5 -2 -5 12 0 14
2 19 5 13 2 -7 2 -19 0 -25z m50 0 c-3 -7 -5 -2 -5 12 0 14 2 19 5 13 2 -7 2
-19 0 -25z m30 0 c-3 -7 -5 -2 -5 12 0 14 2 19 5 13 2 -7 2 -19 0 -25z m-320
0 c-3 -8 -6 -5 -6 6 -1 11 2 17 5 13 3 -3 4 -12 1 -19z m403 0 c0 -6 -6 -5
-15 2 -8 7 -15 14 -15 16 0 2 7 1 15 -2 8 -4 15 -11 15 -16z m-212 -122 c308
-66 563 -309 656 -624 8 -29 20 -99 26 -155 18 -162 -17 -336 -96 -487 -86
-165 -222 -298 -389 -380 -254 -126 -528 -128 -780 -5 -181 88 -305 211 -395
390 -70 139 -92 229 -93 385 -1 271 85 476 276 656 130 122 300 207 469 233
82 13 234 7 326 -13z m-3183 -197 c87 -24 133 -105 122 -219 -10 -109 -73
-169 -180 -170 -96 0 -157 50 -177 145 -19 93 14 195 73 227 50 27 105 32 162
17z m481 -9 c21 -8 22 -12 11 -40 -9 -24 -16 -30 -32 -25 -52 15 -84 16 -117
2 -51 -22 -71 -64 -66 -140 6 -76 35 -107 104 -107 l44 0 0 40 c0 39 -1 40
-35 40 -33 0 -35 2 -35 35 l0 35 75 0 75 0 0 -99 c0 -112 3 -108 -91 -118
-104 -11 -168 18 -206 91 -22 42 -22 161 -1 201 47 88 167 125 274 85z m1161
-11 c71 -44 97 -187 51 -279 -59 -117 -251 -119 -315 -5 -44 79 -24 231 36
274 62 44 165 49 228 10z m358 9 c21 -9 22 -14 13 -40 -8 -24 -15 -28 -32 -24
-65 18 -91 18 -109 -2 -25 -28 -13 -46 53 -81 33 -18 68 -43 80 -58 24 -31 26
-89 4 -122 -33 -46 -130 -65 -203 -40 -27 10 -31 15 -31 49 l0 39 35 -15 c44
-18 109 -18 125 1 22 26 5 49 -60 85 -47 25 -70 45 -83 70 -30 61 1 129 67
150 34 10 106 4 141 -12z m-3091 -176 c36 -104 66 -192 66 -196 0 -4 -19 -6
-42 -4 -40 3 -43 5 -58 48 l-16 45 -68 0 -68 0 -17 -45 c-16 -43 -18 -45 -56
-45 -30 0 -39 4 -37 15 1 8 31 95 65 192 l62 178 51 0 51 0 67 -188z m317 177
c43 -15 88 -55 105 -96 22 -51 18 -133 -9 -184 -34 -65 -88 -89 -203 -92 l-89
-2 -3 193 -2 192 83 0 c46 0 99 -5 118 -11z m259 -66 c12 -43 33 -110 44 -149
l22 -72 45 147 46 146 41 3 c23 2 42 2 42 0 0 -5 -116 -349 -125 -370 -9 -21
-77 -25 -92 -5 -6 6 -38 94 -71 195 l-60 182 42 0 42 0 24 -77z m1366 -108
c35 -99 64 -186 64 -193 0 -9 -12 -12 -42 -10 -40 3 -41 5 -55 51 l-14 47 -69
0 -69 0 -14 -47 c-14 -46 -15 -48 -55 -51 -29 -2 -42 1 -42 9 0 10 81 249 121
357 8 21 14 23 60 20 l51 -3 64 -180z m361 153 c57 -37 76 -83 71 -172 -6
-128 -63 -175 -220 -179 l-93 -2 -3 194 -2 193 103 -4 c92 -3 109 -6 144 -30z
m-1241 -493 c-25 -19 -37 -19 -30 0 4 8 16 15 28 15 21 -1 21 -1 2 -15z
m-1271 -45 c25 -27 7 -70 -29 -70 -19 0 -25 -6 -28 -27 -2 -14 -9 -28 -15 -31
-10 -3 -13 16 -13 72 l0 76 33 0 c21 0 41 -8 52 -20z m65 -40 l0 -60 30 0 c20
0 30 -5 30 -16 0 -12 -9 -14 -42 -12 l-43 3 -3 73 c-2 59 0 72 13 72 12 0 15
-13 15 -60z m181 -10 c24 -70 19 -104 -8 -62 -19 28 -59 29 -68 2 -6 -20 -16
-25 -28 -14 -4 5 11 58 38 132 2 6 13 12 23 12 14 0 25 -17 43 -70z m108 23
l30 -47 3 44 c2 24 9 45 16 48 9 3 12 -16 12 -73 0 -67 -2 -76 -17 -73 -15 3
-27 16 -70 84 -10 16 -12 11 -12 -34 -1 -38 -5 -52 -13 -50 -13 5 -24 109 -14
134 10 27 36 13 65 -33z m211 20 c36 -46 4 -123 -50 -123 -34 0 -70 39 -70 76
0 70 78 100 120 47z m125 12 c0 -5 -12 -11 -27 -13 -36 -4 -35 -18 2 -37 56
-29 26 -96 -36 -81 -36 9 -31 34 6 28 17 -2 30 0 30 6 0 6 -13 20 -30 32 -32
23 -38 48 -18 68 15 15 73 12 73 -3z m180 -10 c27 -26 30 -41 15 -79 -6 -17
-21 -28 -47 -35 -63 -18 -63 -18 -63 64 l0 75 35 0 c25 0 44 -8 60 -25z m135
10 c0 -9 -9 -15 -25 -15 -16 0 -25 -6 -25 -15 0 -9 9 -15 25 -15 14 0 25 -4
25 -10 0 -5 -11 -10 -25 -10 -18 0 -25 -5 -25 -20 0 -15 7 -20 26 -20 40 0 23
-25 -19 -28 l-37 -3 0 75 0 76 40 0 c29 0 40 -4 40 -15z m158 -2 c2 -9 -7 -13
-27 -13 -37 0 -40 -13 -7 -28 40 -18 50 -48 26 -72 -28 -28 -80 -24 -80 6 0
10 8 12 30 8 23 -5 30 -3 30 10 0 9 -4 16 -10 16 -13 0 -50 37 -50 49 0 34 77
54 88 24z m120 -36 c11 -29 22 -61 24 -71 4 -27 -22 -33 -29 -7 -7 28 -46 28
-65 -1 -8 -12 -19 -18 -25 -15 -7 4 -2 31 15 77 31 89 52 93 80 17z m84 -4 c3
-50 6 -58 23 -58 17 0 21 8 25 54 8 82 30 79 30 -3 0 -63 -2 -67 -26 -77 -28
-10 -64 -3 -76 15 -4 6 -8 37 -8 69 0 43 3 57 15 57 10 0 15 -15 17 -57z m213
32 c49 -48 22 -110 -52 -121 l-43 -7 0 77 0 76 35 0 c25 0 44 -8 60 -25z m135
10 c0 -9 -9 -15 -25 -15 -16 0 -25 -6 -25 -15 0 -9 9 -15 25 -15 14 0 25 -4
25 -10 0 -5 -11 -10 -25 -10 -18 0 -25 -5 -25 -20 0 -15 7 -20 25 -20 16 0 25
-6 25 -15 0 -11 -11 -15 -40 -15 l-40 0 0 75 0 75 40 0 c29 0 40 -4 40 -15z
m-387 -172 c-5 -12 -73 -15 -73 -2 0 12 13 17 45 16 22 -1 31 -5 28 -14z
m-1318 -38 c0 -5 -13 -11 -28 -13 -61 -7 -58 -92 3 -92 36 0 40 -17 5 -26 -30
-7 -70 16 -80 46 -9 27 1 64 21 85 18 17 79 17 79 0z m139 -4 c27 -29 24 -91
-5 -114 -27 -22 -77 -17 -96 10 -20 26 -16 80 7 103 25 25 72 26 94 1z m107
-31 c7 -27 15 -50 18 -50 3 0 13 21 21 48 11 36 20 48 38 50 22 3 23 2 20 -69
-2 -47 -7 -74 -15 -77 -9 -2 -13 12 -14 50 l-1 53 -17 -50 c-10 -27 -24 -50
-31 -50 -7 0 -21 23 -31 50 l-17 50 -1 -53 c-1 -76 -25 -65 -29 13 -4 69 1 85
27 85 15 0 22 -12 32 -50z m284 35 c0 -5 -15 -11 -32 -13 -59 -6 -57 -83 1
-90 34 -4 29 -26 -7 -30 -59 -7 -91 84 -46 129 21 21 84 24 84 4z m133 -1 c16
-11 22 -25 22 -53 0 -47 -16 -69 -56 -77 -43 -8 -74 22 -74 73 0 65 55 94 108
57z m122 -36 l30 -53 0 53 c0 40 3 52 15 52 13 0 15 -13 13 -72 -4 -95 -23
-103 -65 -27 l-28 53 -5 -47 c-8 -74 -25 -61 -28 21 -3 67 -1 72 17 72 14 0
30 -16 51 -52z m197 26 c19 -26 16 -78 -5 -98 -11 -9 -36 -17 -58 -19 l-39 -2
-3 59 c-4 83 0 90 50 83 23 -3 48 -14 55 -23z m73 -50 c0 -56 -3 -75 -12 -72
-9 3 -14 30 -16 76 -2 60 0 72 13 72 12 0 15 -14 15 -76z m138 59 c2 -9 -7
-13 -27 -13 -38 0 -55 -27 -41 -64 7 -20 16 -26 40 -26 32 0 40 -14 15 -24 -8
-3 -15 -15 -15 -26 0 -14 -6 -20 -22 -19 -13 0 -17 3 -10 6 18 7 15 17 -18 51
-35 37 -38 69 -9 106 16 21 28 26 52 24 17 -2 32 -9 35 -15z m136 -2 c27 -29
24 -91 -5 -114 -27 -22 -77 -17 -96 10 -20 26 -16 80 7 103 25 25 72 26 94 1z
m136 4 c0 -9 -9 -15 -25 -15 -16 0 -25 -6 -25 -15 0 -8 9 -15 20 -15 11 0 20
-4 20 -10 0 -5 -9 -10 -20 -10 -13 0 -20 -7 -20 -20 0 -15 7 -20 26 -20 16 0
24 -5 22 -12 -3 -8 -21 -13 -42 -13 l-38 0 0 68 c1 37 1 69 1 72 1 3 19 5 41
5 29 0 40 -4 40 -15z m105 0 c0 -5 -12 -11 -27 -13 -36 -4 -35 -18 2 -37 56
-29 26 -96 -36 -81 -36 9 -31 34 6 28 17 -2 30 0 30 6 0 6 -13 20 -30 32 -32
23 -38 48 -18 68 15 15 73 12 73 -3z m165 0 c0 -9 -9 -15 -25 -15 -16 0 -25
-6 -25 -15 0 -9 9 -15 25 -15 14 0 25 -4 25 -10 0 -5 -11 -10 -25 -10 -18 0
-25 -5 -25 -20 0 -15 7 -20 25 -20 16 0 25 -6 25 -15 0 -11 -11 -15 -40 -15
l-40 0 0 75 0 75 40 0 c29 0 40 -4 40 -15z m108 -2 c2 -8 -6 -13 -22 -13 -34
0 -33 -11 4 -38 37 -27 38 -46 5 -68 -28 -19 -75 -12 -75 11 0 11 8 13 29 9
40 -8 48 12 11 31 -16 8 -30 17 -30 19 0 3 -3 11 -6 19 -3 8 2 22 12 31 18 19
65 18 72 -1z m113 7 c21 -12 26 -52 7 -68 -7 -5 -22 -11 -33 -14 -13 -2 -21
-13 -23 -31 -2 -16 -8 -27 -15 -24 -7 2 -13 32 -15 75 l-3 72 31 0 c17 0 40
-5 51 -10z m129 -5 c0 -9 -9 -15 -25 -15 -16 0 -25 -6 -25 -15 0 -9 9 -15 25
-15 14 0 25 -4 25 -10 0 -5 -11 -10 -25 -10 -18 0 -25 -5 -25 -20 0 -15 7 -20
26 -20 40 0 23 -25 -19 -28 l-37 -3 0 75 0 76 40 0 c29 0 40 -4 40 -15z m128
-2 c2 -9 -7 -13 -27 -13 -38 0 -55 -27 -41 -64 7 -20 16 -26 40 -26 32 0 40
-14 14 -24 -28 -11 -44 -6 -69 19 -31 30 -32 64 -4 99 16 21 28 26 52 24 17
-2 32 -9 35 -15z m60 -55 c-2 -46 -7 -73 -15 -76 -10 -3 -13 16 -13 72 0 62 3
76 15 76 13 0 15 -12 13 -72z m128 7 c13 -33 23 -66 23 -72 1 -21 -27 -15 -34
7 -9 27 -49 26 -68 -2 -26 -40 -29 -12 -6 62 30 92 51 93 85 5z m74 -11 c0
-56 -3 -75 -12 -72 -9 3 -14 30 -16 76 -2 60 0 72 13 72 12 0 15 -14 15 -76z
m115 61 c0 -5 -12 -11 -27 -13 -36 -4 -35 -18 2 -37 56 -29 26 -96 -36 -81
-36 9 -31 34 6 28 17 -2 30 0 30 6 0 6 -13 20 -30 32 -32 23 -38 48 -18 68 15
15 73 12 73 -3z m-1148 -497 c-2 -8 -16 -12 -35 -10 -24 3 -34 -2 -47 -21 -30
-46 7 -107 55 -92 14 4 20 2 20 -9 0 -12 -10 -16 -35 -16 -48 0 -75 29 -75 80
0 54 27 80 81 80 28 0 39 -4 36 -12z m129 4 c37 -24 43 -87 13 -126 -58 -73
-162 13 -118 97 16 29 28 37 64 37 17 0 35 -4 41 -8z m124 -49 l35 -58 3 58
c5 86 22 68 22 -23 0 -98 -11 -102 -62 -22 l-38 57 0 -57 c0 -32 -4 -58 -10
-58 -6 0 -10 33 -10 80 0 98 12 103 60 23z m180 43 c0 -9 -10 -13 -31 -12 -47
2 -46 -20 0 -44 44 -22 53 -47 25 -74 -20 -20 -84 -22 -84 -2 0 9 11 13 32 12
45 -2 52 30 9 45 -35 12 -51 50 -31 74 16 19 80 20 80 1z m60 -50 c0 -56 3
-65 20 -71 35 -11 50 12 50 76 0 46 3 59 15 59 25 0 21 -114 -5 -140 -27 -27
-75 -26 -94 2 -22 31 -22 138 -1 138 12 0 15 -14 15 -64z m150 0 l0 -65 32 -3
c52 -5 47 -28 -6 -28 l-46 0 0 80 c0 47 4 80 10 80 6 0 10 -28 10 -64z m190
54 c0 -5 -11 -10 -25 -10 -24 0 -25 -2 -25 -70 0 -40 -4 -70 -10 -70 -6 0 -10
30 -10 70 0 68 -1 70 -25 70 -14 0 -25 5 -25 10 0 6 27 10 60 10 33 0 60 -4
60 -10z m110 0 c0 -5 -16 -10 -35 -10 -28 0 -35 -4 -35 -19 0 -15 8 -21 33
-23 17 -2 32 -7 32 -13 0 -5 -15 -11 -32 -13 -24 -2 -33 -8 -33 -22 0 -14 8
-20 32 -22 52 -5 47 -28 -6 -28 l-46 0 0 80 0 80 45 0 c25 0 45 -4 45 -10z
m172 -65 c15 -37 28 -72 28 -77 0 -18 -21 -7 -32 17 -8 18 -19 25 -39 25 -22
0 -30 -6 -35 -25 -3 -14 -12 -25 -20 -25 -8 0 -14 1 -14 3 0 2 14 39 49 130 6
16 16 27 23 25 7 -3 25 -35 40 -73z m164 54 c24 -26 23 -92 -1 -119 -15 -16
-16 -22 -5 -35 21 -25 2 -30 -23 -7 -13 12 -31 22 -40 22 -49 0 -76 89 -41
138 21 30 83 31 110 1z m74 -43 c0 -56 3 -65 20 -71 35 -11 50 12 50 77 0 43
3 58 13 55 8 -3 12 -25 11 -67 -1 -69 -16 -90 -63 -90 -44 0 -61 26 -61 97 0
49 3 63 15 63 12 0 15 -14 15 -64z m150 -16 c0 -47 -4 -80 -10 -80 -6 0 -10
33 -10 80 0 47 4 80 10 80 6 0 10 -33 10 -80z m-270 -105 c0 -13 -80 -15 -682
-13 -534 2 -682 6 -686 16 -3 9 138 12 682 12 605 0 686 -2 686 -15z m290 0
c0 -12 -19 -15 -110 -15 -91 0 -110 3 -110 15 0 12 19 15 110 15 91 0 110 -3
110 -15z"/>
<path d="M4830 2151 c-8 -5 -32 -11 -52 -15 -61 -11 -143 -52 -171 -86 -23
-26 -25 -34 -14 -51 10 -16 9 -25 -5 -50 -31 -53 -51 -207 -45 -343 4 -100 9
-133 31 -191 15 -38 34 -87 41 -108 l14 -38 -91 -97 c-50 -53 -107 -106 -127
-117 -56 -32 -67 -61 -53 -137 10 -53 10 -71 -3 -112 -27 -87 -24 -93 58 -131
117 -56 184 -70 337 -70 151 0 225 17 350 80 54 27 190 119 190 128 0 1 11 67
25 145 14 78 25 156 25 173 0 35 -19 76 -49 103 -51 47 -99 220 -163 601 -13
75 -57 163 -111 222 -46 50 -76 68 -130 78 -20 4 -34 11 -31 16 7 11 -6 11
-26 0z m90 -128 c52 -9 76 -29 105 -86 19 -39 25 -66 25 -116 0 -35 5 -93 11
-128 10 -56 8 -76 -10 -158 -12 -52 -31 -105 -41 -118 -11 -14 -24 -36 -29
-50 -5 -14 -26 -37 -45 -52 -35 -26 -56 -27 -56 0 0 12 -35 27 -70 30 -32 3
-110 47 -134 76 -14 17 -33 55 -42 85 -8 30 -19 54 -24 54 -4 0 -6 -10 -3 -21
4 -15 2 -20 -7 -17 -21 7 -23 24 -4 42 11 12 18 39 20 84 5 90 19 154 43 193
13 21 18 42 14 57 -11 47 132 149 192 136 11 -3 36 -8 55 -11z m-185 -683 c-3
-5 1 -11 7 -13 10 -4 10 -6 1 -6 -7 -1 -22 8 -33 19 -26 26 -16 48 11 24 10
-9 16 -20 14 -24z m128 -30 c7 0 7 -4 -2 -9 -16 -10 -41 -4 -41 11 0 6 7 7 16
4 9 -3 21 -6 27 -6z m64 -63 c1 -21 -1 -24 -10 -15 -15 14 -17 50 -3 45 6 -2
12 -16 13 -30z m103 -177 c0 -5 -4 -10 -10 -10 -5 0 -10 5 -10 10 0 6 5 10 10
10 6 0 10 -4 10 -10z"/>
<path d="M4700 1821 l-25 -20 41 6 c27 3 51 0 70 -11 22 -12 24 -15 9 -14 -48
3 -76 -3 -95 -22 -25 -25 -26 -40 -2 -40 10 0 40 -7 67 -16 46 -16 49 -16 62
1 7 11 12 39 11 63 -1 47 -9 54 -80 67 -26 5 -40 2 -58 -14z"/>
<path d="M4933 1813 c-40 -8 -26 -26 15 -19 20 3 44 6 52 6 13 0 13 1 0 10
-15 10 -28 11 -67 3z"/>
<path d="M4923 1759 c-18 -18 -3 -39 28 -39 19 0 29 5 29 15 0 20 10 19 26 -2
7 -10 15 -15 19 -11 4 3 -3 16 -14 27 -23 23 -70 28 -88 10z"/>
<path d="M4780 1617 c-28 -25 -50 -60 -50 -80 0 -7 22 -34 49 -61 l49 -48 37
13 c52 19 66 39 27 39 -17 0 -37 3 -46 6 -26 10 -18 24 13 24 17 0 32 4 35 9
10 15 -50 23 -91 12 -40 -11 -57 -4 -44 18 5 8 30 15 60 16 29 1 54 5 58 8 12
13 -21 39 -44 34 -27 -5 -30 8 -5 22 16 10 15 10 -3 11 -11 0 -31 -10 -45 -23z"/>
<path d="M4960 1593 c0 -5 7 -18 15 -29 12 -16 14 -16 15 -3 0 9 -7 22 -15 29
-8 7 -15 8 -15 3z"/>
<path d="M4936 1505 c-3 -8 -2 -15 3 -15 5 0 14 7 21 15 10 12 10 15 -3 15 -8
0 -17 -7 -21 -15z"/>
<path d="M1649 1965 c-47 -25 -64 -120 -35 -190 17 -39 42 -55 88 -55 63 1 88
39 88 135 0 60 -3 69 -29 96 -33 32 -70 37 -112 14z"/>
<path d="M3237 1959 c-35 -26 -51 -84 -42 -144 9 -64 41 -95 95 -95 53 0 86
31 95 92 18 122 -70 209 -148 147z"/>
<path d="M525 1908 c-9 -34 -19 -68 -22 -75 -4 -10 7 -13 41 -13 25 0 46 3 46
6 0 12 -41 144 -44 144 -2 0 -11 -28 -21 -62z"/>
<path d="M862 1848 c3 -119 4 -123 26 -126 70 -10 125 44 125 124 0 86 -34
124 -114 124 l-40 0 3 -122z"/>
<path d="M2463 1890 l-20 -70 47 0 48 0 -21 70 c-11 39 -23 70 -27 70 -3 0
-15 -31 -27 -70z"/>
<path d="M2810 1845 l0 -125 25 0 c14 0 41 7 61 15 57 24 80 106 50 180 -17
41 -42 55 -95 55 l-41 0 0 -125z"/>
<path d="M400 1440 c0 -23 25 -27 33 -6 7 16 -1 26 -20 26 -7 0 -13 -9 -13
-20z"/>
<path d="M650 1436 c0 -9 0 -19 -1 -23 0 -4 4 -9 10 -11 14 -5 14 35 1 43 -5
3 -10 -1 -10 -9z"/>
<path d="M934 1434 c-9 -35 7 -59 37 -59 21 0 24 4 24 40 0 36 -3 40 -27 43
-23 3 -29 -2 -34 -24z"/>
<path d="M1260 1416 c0 -30 4 -46 13 -46 26 0 38 18 35 51 -2 26 -8 35 -25 37
-21 3 -23 -1 -23 -42z"/>
<path d="M1697 1444 c-10 -11 -9 -44 2 -44 15 0 19 13 12 33 -4 10 -10 15 -14
11z"/>
<path d="M1970 1415 c0 -38 3 -45 20 -45 28 0 46 40 31 69 -7 11 -21 21 -31
21 -17 0 -20 -7 -20 -45z"/>
<path d="M524 1224 c-9 -35 7 -59 37 -59 21 0 24 4 24 40 0 36 -3 40 -27 43
-23 3 -29 -2 -34 -24z"/>
<path d="M1057 1244 c-9 -9 -9 -47 -1 -68 10 -26 53 -20 60 8 10 40 1 61 -26
64 -14 2 -29 0 -33 -4z"/>
<path d="M1372 1208 c2 -34 7 -43 22 -43 26 0 40 26 32 58 -5 20 -13 27 -32
27 -23 0 -25 -3 -22 -42z"/>
<path d="M1714 1224 c-9 -35 7 -59 37 -59 21 0 24 4 24 40 0 36 -3 40 -27 43
-23 3 -29 -2 -34 -24z"/>
<path d="M2370 1229 c0 -25 33 -22 38 4 2 12 -3 17 -17 17 -15 0 -21 -6 -21
-21z"/>
<path d="M2817 1229 c-10 -35 -9 -39 8 -39 16 0 18 14 6 44 -7 18 -8 18 -14
-5z"/>
<path d="M1962 748 c-27 -27 -5 -108 29 -108 30 0 49 22 49 58 0 43 -14 62
-45 62 -12 0 -26 -5 -33 -12z"/>
<path d="M2972 720 c-7 -19 -6 -26 5 -28 21 -5 25 2 14 29 l-9 24 -10 -25z"/>
<path d="M3102 748 c-20 -20 -15 -86 7 -98 11 -5 24 -10 30 -10 19 0 41 32 41
60 0 48 -48 78 -78 48z"/>
</g>
</svg>
